<svg id="svg" version="1.1" viewBox="0 0 300 300" width="300" height="300" xmlns="http://www.w3.org/2000/svg"><svg xmlns="http://www.w3.org/2000/svg"><defs><clipPath id="clip-1"><rect x="0" y="0" transform="scale(0.14648,0.14648)" width="2048" height="2048" fill="none"/></clipPath><linearGradient x1="173.53564" y1="211.16748" x2="141.5937" y2="95.64331" gradientUnits="userSpaceOnUse" id="color-1"><stop offset="0" stop-color="#004281"/><stop offset="1" stop-color="#1d9bb2"/></linearGradient><linearGradient x1="168.97119" y1="211.69629" x2="208.42676" y2="214.41357" gradientUnits="userSpaceOnUse" id="color-2"><stop offset="0" stop-color="#086f9a"/><stop offset="1" stop-color="#30d1ce"/></linearGradient><linearGradient x1="124.52197" y1="200.55615" x2="123.67178" y2="199.10889" gradientUnits="userSpaceOnUse" id="color-3"><stop offset="0" stop-color="#004077" stop-opacity="0.98039"/><stop offset="1" stop-color="#000922"/></linearGradient><linearGradient x1="87.66519" y1="213.67383" x2="87.21167" y2="212.2207" gradientUnits="userSpaceOnUse" id="color-4"><stop offset="0" stop-color="#00001f" stop-opacity="0.98039"/><stop offset="1" stop-color="#001539"/></linearGradient></defs><g clip-path="url(#clip-1)" fill="none" fill-rule="nonzero" stroke="none" stroke-width="1" stroke-linecap="butt" stroke-linejoin="miter" stroke-miterlimit="10" stroke-dasharray="" stroke-dashoffset="0" font-family="none" font-weight="none" font-size="none" text-anchor="none" style="mix-blend-mode: normal"><path d="M276.61523,54.48706l0.00879,0.15059c0.10986,2.06997 -1.0415,6.8981 0.60791,8.73311l0.07471,1.43555c-0.76904,5.59834 -1.2334,8.54297 -2.79785,14.01841c-0.33398,1.25786 -0.73389,2.68608 -1.37256,3.82515c-0.22119,0.8521 -1.26709,3.16699 -1.65234,4.08252c-0.38379,0.03413 -0.61084,0.00015 -0.87744,0.42349c-1.05469,1.67578 -4.21289,6.37661 -4.06494,8.21133c-1.66992,3.4623 -4.71533,6.58125 -7.39893,9.29839c-1.34766,1.36392 -2.63086,2.86362 -4.05908,4.13716c-1.19238,1.06245 -2.52832,2.02192 -3.79248,2.99941c-8.29541,6.41074 -17.52246,11.29526 -27.16846,15.37236c-1.63184,0.68965 -3.33398,1.21348 -4.979,1.87266c-3.27686,1.3125 -6.5083,2.64771 -9.84375,3.81284c-4.19824,1.46675 -8.46826,2.70557 -12.68115,4.12441c-20.83887,7.01924 -29.86523,12.60542 -42.25928,30.9731c-3.59766,5.33203 -6.78662,10.84863 -10.81304,15.88916c-0.71821,0.89795 -1.43745,2.00684 -2.27651,2.78467c-0.6438,0.25928 -0.81489,0.31934 -1.50513,0.2417l0.24126,-0.39697c-0.16494,0.09375 -4.54893,4.92188 -4.87808,5.32471c0.06138,0.37793 0.07002,0.67676 0.28154,0.9917l-0.95435,0.97266c-0.60425,-0.58887 -0.84976,-0.41602 -1.63755,-0.25488c-6.39536,5.20166 -11.21382,8.35986 -19.13936,11.2002c0.19834,0.65332 0.21812,0.2666 0.60996,0.74268c-1.4127,0.61816 -2.41626,0.9082 -3.90513,1.34033c-0.37896,-0.24463 -0.56748,-0.54639 -0.8458,-0.90234c-1.72207,0.84814 -3.91685,1.72705 -5.82422,1.95996l-0.9293,0.11719c0.68101,0.01904 1.90796,-0.05273 2.40732,0.2959c-1.13643,0.31934 -2.2894,0.66064 -3.44121,0.91113c-1.17759,0.39258 -2.09531,0.6709 -3.34951,0.78223c-1.1313,-0.07178 -1.22651,0.03662 -1.86445,-0.89355c-0.10591,0.4292 -0.07266,0.48926 0.05947,0.91113c-0.28813,0.26514 -0.69419,0.2373 -1.09819,0.21826c-2.12622,-0.09814 -2.47207,-0.25781 -4.40361,0.75293c-2.09458,0.75586 -6.07705,1.46045 -7.50029,3.82471c-0.08877,0.46436 0.00659,0.53467 0.21709,0.96826c-3.38687,2.79053 -5.9042,6.71484 -7.84468,10.59521c-1.18755,0.78369 -1.38296,2.93115 -2.36777,3.72363c-0.15776,-0.00879 -0.31538,-0.01904 -0.473,-0.02783l-0.02227,-0.17285c0.34424,-0.18311 0.33853,-0.17578 0.72202,-0.25635c-0.12744,-0.80127 -0.22939,-0.71924 0.28462,-1.50879l-0.05977,-0.17725c-0.63853,1.20996 -1.89229,3.90527 -2.17515,5.2002c-0.28477,1.63623 -1.60444,2.74219 -2.10908,4.3667c-0.29722,0.95654 -0.38599,1.96582 -0.4541,2.95898l0.4481,-0.41748c0.17256,0.08789 0.25283,0.11719 0.40752,0.23291c-0.24111,0.5083 -0.39609,0.94336 -0.59048,1.47217l-22.73364,-0.01318c-2.50752,-0.00146 -9.94087,0.11572 -12.09712,-0.23291l-0.10107,-0.19189c0.21313,-0.84521 0.62388,-1.55859 1.01587,-2.34082c0.77681,-1.56885 1.16279,-2.15039 1.71768,-3.85254l0.83101,-2.13721c0.85254,-1.57471 1.66362,-3.45264 2.49097,-5.09619c0.65874,-1.05029 2.09985,-4.19678 2.69399,-5.40674c0.54829,0.87598 0.43433,1.22607 0.38613,2.29395c0.38438,-1.05029 0.32197,-1.66846 0.97383,-2.63379c-0.36782,-0.20215 -0.58052,-0.36182 -0.92197,-0.59912c1.20234,-1.76807 2.152,-4.19678 3.40576,-6.06152c5.39824,-8.03027 11.70132,-14.72168 20.22715,-19.46191c2.17573,-1.20996 4.58232,-2.33496 6.82998,-3.47607c0.56323,-0.35889 0.83628,-0.38965 1.49561,-0.56689c1.23545,-0.2915 2.69355,-1.02979 4.00283,-1.47803c0.41807,-0.22559 0.90586,-0.43506 1.34253,-0.63428c0.63384,-0.20361 1.40361,-0.38379 2.05649,-0.55664c0.86133,-0.35449 1.10947,-0.39844 2.00259,-0.56543c4.18667,-1.21582 8.19126,-2.56934 12.44502,-3.75146l1.31924,-0.55518c0.48911,-0.17139 1.14888,-0.46582 1.64399,-0.66797c3.64482,-1.05908 6.74194,-2.93701 10.10303,-4.67578c0.71719,-0.37207 1.47422,-1.00928 2.16167,-1.35498l0.21108,-0.10547c11.0332,-7.88379 16.21831,-16.80176 23.06162,-28.10156c4.90122,-8.09414 10.99863,-16.52139 18.05186,-22.83647c7.78564,-7.78916 25.40332,-16.18345 35.85059,-19.64429c1.32861,-0.68555 5.13574,-1.90107 6.74561,-2.49639c4.5791,-1.69482 9.29883,-3.24785 13.86914,-4.973c5.66748,-2.13984 11.1123,-4.53311 16.65381,-6.95933c1.31982,-0.57832 2.61621,-1.32524 3.95068,-1.852c1.21436,-0.69316 2.58105,-1.32319 3.83643,-2.01064c3.60352,-1.98633 7.16748,-4.04443 10.68896,-6.173c1.45313,-0.89766 2.82275,-1.97988 4.22168,-2.94229c7.70361,-5.30112 14.92529,-11.39238 20.94287,-18.57832c1.5,-1.79341 3.26514,-4.55142 5.01416,-6.07046z" fill="url(#color-1)"/><path d="M231.26221,90.74341c0.92725,0.08774 1.74023,-0.54829 2.53564,-1.05103c-1.08252,1.03975 -2.32178,2.302 -3.46143,3.28022c-0.21094,0.18062 -1.58057,0.64351 -1.63477,0.67427c-0.48486,0.28213 -1.99512,2.07319 -2.25,2.51118c1.18799,2.83066 2.3833,5.71641 3.94775,8.36865c0.11719,0.20068 1.82373,0.60366 2.21484,1.10171c-0.0498,0.28887 0.00879,0.32271 -0.37793,0.52764c-2.69092,1.42178 -5.96924,3.16992 -8.76562,4.23413l-0.10547,0.17065l0.04102,0.08657c-1.26123,0.74927 -3.44971,1.57412 -4.91602,2.17397c-21.74414,8.89277 -47.00537,13.78228 -62.68799,32.82085c-1.1543,1.40171 -2.25293,3.08335 -3.63574,4.26987c-0.40283,0.3457 -3.19775,-0.13184 -3.62109,-0.45264c0.3501,-0.45117 0.41895,-0.46729 0.53174,-1.04736c-0.66943,-0.62695 -0.23584,0.21387 -1.05908,-0.49072c0.00439,-0.6416 0.55811,-0.99023 0.54346,-1.0957c-0.17285,-1.2041 -3.19526,-4.47642 -3.16084,-5.28311c0.12319,-2.8916 2.21895,-5.74219 3.71016,-8.13032c0.80713,-1.15869 1.79443,-1.9333 2.62061,-3.05757c1.15723,-1.59111 1.10449,-2.0502 2.58838,-3.421l-0.12744,-0.26528c7.78564,-7.78916 25.40332,-16.18345 35.85059,-19.64429c1.32861,-0.68555 5.13574,-1.90107 6.74561,-2.49639c4.5791,-1.69482 9.29883,-3.24785 13.86914,-4.973c5.66748,-2.13984 11.1123,-4.53311 16.65381,-6.95933c1.31982,-0.57832 2.61621,-1.32524 3.95068,-1.852z" fill="#2c9fbd"/><path d="M154.19238,126.66841c7.78564,-7.78916 25.40332,-16.18345 35.85059,-19.64429c-0.73975,0.73462 -1.04443,0.5688 -1.60693,1.0916l0.67383,-0.30688c-2.12109,1.26372 -6.06299,2.6083 -8.40967,3.63574c-1.71826,0.75205 -3.2959,1.67856 -4.97021,2.41523c-1.42969,0.629 -3.40283,0.84141 -4.7666,1.76235c-0.4585,0.3085 -1.31689,0.73901 -1.8457,0.8918c0.40137,-0.07163 0.8042,-0.13594 1.2085,-0.19263c-0.48633,1.28247 -11.70703,5.84575 -12.91992,7.95161c0,-0.00103 -2.9751,2.59834 -3.08643,2.66074z" fill="#1e90a1"/><path d="M275.96631,54.9687c1.28467,1.12559 -1.22021,5.61475 -1.75635,6.97002c-8.98242,22.69263 -28.51172,39.35933 -50.80371,48.70869l-0.04102,-0.08657l0.10547,-0.17065c2.79639,-1.06421 6.07471,-2.81235 8.76563,-4.23413c0.38672,-0.20493 0.32813,-0.23877 0.37793,-0.52764c-0.39111,-0.49805 -2.09766,-0.90103 -2.21484,-1.10171c-1.56445,-2.65225 -2.75977,-5.53799 -3.94775,-8.36865c0.25488,-0.43799 1.76514,-2.22905 2.25,-2.51118c0.0542,-0.03076 1.42383,-0.49365 1.63477,-0.67427c1.13965,-0.97822 2.37891,-2.24048 3.46143,-3.28022c-0.79541,0.50273 -1.6084,1.13877 -2.53564,1.05103c1.21436,-0.69316 2.58105,-1.32319 3.83643,-2.01064c3.60352,-1.98633 7.16748,-4.04443 10.68896,-6.173c1.45313,-0.89766 2.82275,-1.97988 4.22168,-2.94229c7.70361,-5.30112 14.92529,-11.39238 20.94287,-18.57832c1.5,-1.79341 3.26514,-4.55142 5.01416,-6.07046z" fill="#64c4dc"/><path d="M74.29482,192.51855l0.16802,0.28564c-0.86221,0.3252 -1.6563,0.83496 -2.47852,1.23047c-3.12568,1.50586 -6.25239,3.07031 -8.97524,5.24414c-0.60615,0.48486 -1.27808,0.95801 -1.95967,1.34619c-0.05098,0.38525 -0.06035,0.25195 0.03999,0.61377c-3.14707,3.41602 -6.59634,6.36035 -9.22573,10.18799c-0.61729,0.89941 -1.66787,1.77246 -2.28809,2.70557c-1.5624,2.07129 -3.11836,6.24463 -4.82168,7.98486c-0.36782,-0.20215 -0.58052,-0.36182 -0.92197,-0.59912c1.20234,-1.76807 2.152,-4.19678 3.40576,-6.06152c5.39824,-8.03027 11.70132,-14.72168 20.22715,-19.46191c2.17573,-1.20996 4.58232,-2.33496 6.82998,-3.47607z" fill="#02325c"/><path d="M35.6603,238.94971c0.37837,0.4292 0.62241,0.66943 0.9022,1.16309c0.06211,0.51709 -0.05596,0.32959 0.29707,0.62109c0.81958,0.16406 6.97705,-0.05859 8.30288,-0.05713l15.02827,0.01318c1.80015,0.00732 7.74507,0.29883 9.12041,-0.24902l0.4481,-0.41748c0.17256,0.08789 0.25283,0.11719 0.40752,0.23291c-0.24111,0.5083 -0.39609,0.94336 -0.59048,1.47217l-22.73364,-0.01318c-2.50752,-0.00146 -9.94087,0.11572 -12.09712,-0.23291l-0.10107,-0.19189c0.21313,-0.84521 0.62388,-1.55859 1.01587,-2.34082z" fill="#00010a"/><path d="M97.63989,184.96582l1.31924,-0.55518c0.51475,0.20801 0.95054,0.38672 1.4499,0.62842l-0.55679,0.31201c-1.56782,0.13916 -3.023,1.28174 -4.43892,1.71973c-1.70859,0.52734 -3.66929,1.04883 -5.40879,1.50293c-0.89502,0.23291 -2.52627,0.78809 -3.29033,0.94336c-0.19175,-0.12744 -1.25654,-0.65771 -1.51934,-0.7998c4.18667,-1.21582 8.19126,-2.56934 12.44502,-3.75146z" fill="#013760"/><path d="M97.63989,184.96582l1.31924,-0.55518c0.51475,0.20801 0.95054,0.38672 1.4499,0.62842l-0.55679,0.31201c-0.8666,-0.05566 -1.53926,0.04834 -2.21235,-0.38525z" fill="#02325c"/><path d="M274.33154,77.90127c0.50537,-1.02686 0.09082,-3.0936 0.30176,-4.47671c0.22559,-1.48022 0.54346,-2.77192 0.65771,-4.26387c0.07178,-0.93047 -0.04834,-3.67339 0.12451,-4.34429l0.23145,0.01436c0.51855,0.73359 -0.12891,4.91499 0.36768,6.34058c0.3999,-0.52031 0.95801,-6.59458 1.21729,-7.80059l0.07471,1.43555c-0.76904,5.59834 -1.2334,8.54297 -2.79785,14.01841z" fill="#10718c"/><path d="M40.69995,227.86377c0.37734,0.50684 0.36343,0.74121 1.03931,0.71191c-1.15913,2.71289 -1.72676,3.87451 -2.99971,6.52441l-0.5335,1.27148c-0.40078,-0.42041 -0.5458,-0.75879 -0.82808,-1.27441l0.83101,-2.13721c0.85254,-1.57471 1.66362,-3.45264 2.49097,-5.09619z" fill="#02325c"/><path d="M38.20898,232.95996c0.19717,0.68115 0.46729,1.44873 0.53057,2.14014l-0.5335,1.27148c-0.40078,-0.42041 -0.5458,-0.75879 -0.82808,-1.27441z" fill="#001739"/><path d="M43.39395,222.45703c0.54829,0.87598 0.43433,1.22607 0.38613,2.29395c-0.68086,1.35498 -1.53867,2.39502 -2.04082,3.82471c-0.67588,0.0293 -0.66196,-0.20508 -1.03931,-0.71191c0.65874,-1.05029 2.09985,-4.19678 2.69399,-5.40674z" fill="#013760"/><path d="M79.79326,190.47363c0.41807,-0.22559 0.90586,-0.43506 1.34253,-0.63428c0.30103,0.20508 0.94204,0.6167 1.19722,0.83936l-0.86953,0.271c-1.11284,0.35303 -3.60776,1.38867 -4.70405,1.86768c-0.32461,-0.28418 -0.64746,-0.57861 -0.96899,-0.86572c1.23545,-0.2915 2.69355,-1.02979 4.00283,-1.47803z" fill="#02325c"/><path d="M79.79326,190.47363c0.41807,-0.22559 0.90586,-0.43506 1.34253,-0.63428c0.30103,0.20508 0.94204,0.6167 1.19722,0.83936l-0.86953,0.271c-0.6876,-0.08643 -1.03125,-0.22412 -1.67021,-0.47607z" fill="#001739"/><path d="M100.60312,183.74268c3.64482,-1.05908 6.74194,-2.93701 10.10303,-4.67578c0.71719,-0.37207 1.47422,-1.00928 2.16167,-1.35498l0.21108,-0.10547l0.0186,0.27393c-2.26934,1.62891 -7.61279,4.28467 -10.20293,5.42285c0.44985,0.40137 0.8376,0.26953 1.37959,0.16699c-0.18867,0.31494 -1.89126,0.83643 -2.34111,0.87891c-0.66797,-0.18164 -0.75732,-0.21826 -1.32993,-0.60645z" fill="#013760"/><path d="M83.19229,189.28271c0.86133,-0.35449 1.10947,-0.39844 2.00259,-0.56543c0.26279,0.14209 1.32759,0.67236 1.51934,0.7998c-0.57041,0.16113 -1.22549,0.37061 -1.82285,0.33398c-0.62197,0.18604 -2.0666,0.74707 -2.55835,0.82764c-0.25518,-0.22266 -0.89619,-0.63428 -1.19722,-0.83936c0.63384,-0.20361 1.40361,-0.38379 2.05649,-0.55664z" fill="#02325c"/><path d="M37.37798,235.09717c0.28228,0.51563 0.42729,0.854 0.82808,1.27441c-0.17871,0.61377 -0.38276,1.14697 -0.74941,1.68018c-0.75571,1.09717 -1.02012,0.74268 -0.89414,2.06104c-0.27979,-0.49365 -0.52383,-0.73389 -0.9022,-1.16309c0.77681,-1.56885 1.16279,-2.15039 1.71768,-3.85254z" fill="#013760"/><path d="M109.53721,205.89111c1.23149,-0.24316 2.91372,-0.7998 4.14097,-1.18066c0.19834,0.65332 0.21812,0.2666 0.60996,0.74268c-1.4127,0.61816 -2.41626,0.9082 -3.90513,1.34033c-0.37896,-0.24463 -0.56748,-0.54639 -0.8458,-0.90234z" fill="#00051d"/><path d="M75.79043,191.95166c0.32153,0.28711 0.64438,0.58154 0.96899,0.86572c-0.54507,0.22705 -1.12734,0.35742 -1.68135,0.60205c-2.46562,1.08838 -4.87002,2.73193 -7.38735,3.67236l-0.05098,-0.14062l-0.08672,0.08643l0.09111,0.07178c0.22544,-0.90234 0.28696,0.28711 0.70708,-0.80273c1.70698,-0.27539 4.88511,-2.19434 6.43799,-3.13184l-0.32637,-0.37061l-0.16802,-0.28564c0.56323,-0.35889 0.83628,-0.38965 1.49561,-0.56689z" fill="#001739"/><path d="M96.53584,209.06396c1.16118,-0.23291 2.23198,-0.12744 3.64644,-0.44531c0.60264,0.61084 0.61436,0.53174 1.56753,0.55664c-1.17759,0.39258 -2.09531,0.6709 -3.34951,0.78223c-1.1313,-0.07178 -1.22651,0.03662 -1.86445,-0.89355z" fill="#00051d"/><path d="M273.13623,82.64985c-0.0249,-1.08237 0.18896,-4.29785 0.89209,-5.06074l0.19189,0.04395l0.11133,0.26821l0.17725,0.92344c-0.33398,1.25786 -0.73389,2.68608 -1.37256,3.82515z" fill="#0f7eaa"/><path d="M102.78369,207.96826c0.68101,0.01904 1.90796,-0.05273 2.40732,0.2959c-1.13643,0.31934 -2.2894,0.66064 -3.44121,0.91113c-0.95317,-0.0249 -0.96489,0.0542 -1.56753,-0.55664c0.95947,-0.20215 1.66362,-0.37061 2.60142,-0.65039z" fill="#00010a"/><path d="M135.12788,191.80078c0.06138,0.37793 0.07002,0.67676 0.28154,0.9917l-0.95435,0.97266c-0.60425,-0.58887 -0.84976,-0.41602 -1.63755,-0.25488c0.90659,-0.51416 1.62773,-0.91406 2.31035,-1.70947z" fill="#001739"/><path d="M98.95913,184.41064c0.48911,-0.17139 1.14888,-0.46582 1.64399,-0.66797c0.57261,0.38818 0.66196,0.4248 1.32993,0.60645c-0.41177,0.11865 -1.2123,0.42188 -1.52402,0.68994c-0.49937,-0.2417 -0.93516,-0.42041 -1.4499,-0.62842z" fill="#044d6f"/><path d="M253.97021,123.38071c0.45264,-0.31406 0.41895,-0.4166 0.82031,-0.35742c0.14648,0.54346 0.02344,1.92305 -0.01318,2.55088c-0.83496,14.17163 -11.22803,28.31353 -22.36084,35.99077c-1.15283,0.7998 -2.34375,1.54395 -3.56982,2.22803c-0.52002,0.29443 -2.15479,1.16162 -2.54883,1.47656c-2.49463,1.05615 -4.83691,2.49023 -7.38135,3.38086c-4.36523,1.52783 -8.9707,3.53467 -13.44287,4.68604c-1.89551,-0.59619 -5.0918,0.92871 -7.04004,1.46631c-1.48389,0.40869 -5.46826,1.59082 -6.57715,2.50049l0.82031,-0.271c-0.79248,0.43213 -3.01318,1.35938 -3.31787,1.85156c-2.44482,1.40479 -4.06787,2.12402 -6.53027,3.74707c-0.52295,0.55518 -1.0752,0.86279 -1.55859,1.36523c0.48779,1.50879 1.33887,3.52588 2.12549,4.91455c2.5752,6.22119 5.89014,12.31641 8.53271,18.53613c0.46729,1.09863 2.4375,4.87207 2.67627,5.66895l8.48584,17.66895c1.13086,2.35254 2.86816,5.6748 3.83496,8.01123c0.4292,0.91113 0.52002,1.3374 0.77051,2.31006c-0.23145,0.32666 -0.15381,0.36768 -0.65332,0.39551c-2.31445,0.12598 -6.46289,0.31787 -8.66162,0.05566l-11.56348,0.07324c-3.46436,0.03662 -7.20996,0.2373 -10.65527,-0.24023c-0.81738,-0.11279 -1.13086,-0.29736 -1.66553,-0.91113l-0.08936,-0.35889c-2.26025,-2.49902 -2.69971,-3.72363 -4.49854,-6.49805c-0.86279,-1.52344 -1.68018,-3.07324 -2.45068,-4.64502c-0.53174,-0.86865 -1.63184,-3.2373 -2.13135,-4.24805c0.59766,-0.77783 0.25488,-1.90576 0.30908,-3.15967c-0.10693,-0.59473 -0.86426,-2.65576 -1.22461,-3.16406l-0.58154,0.19775l-0.05273,0.23291l-0.12891,0.02197c-0.20654,-0.23584 -0.38379,-0.46289 -0.58301,-0.69873c-1.33154,-1.56885 -1.05029,-3.58301 -2.49316,-5.3042c-0.42187,-0.90381 -0.88184,-1.91748 -1.5498,-2.66455l-0.20508,0.25049l-0.04834,-0.03369c-0.05273,0.36475 0.01318,0.63135 0.06738,0.99463c-1.33008,-2.19873 -3.07617,-6.48633 -4.39014,-9.02783l0.32227,-0.25488c0.43799,0.1377 0.51416,0.22559 0.8877,0.48486l-0.01465,-0.34424c-0.8877,-0.70312 -0.57861,-1.81201 -1.63037,-2.43311c-0.5918,-0.34863 -1.14844,-1.20117 -1.12207,-1.89697c0.32959,0.2666 0.60938,0.51416 0.92432,0.79541l0.09668,-0.14062c-0.14795,-0.57715 -1.06348,-1.11182 -1.21729,-1.45166c-0.45117,-1.00488 0.40576,-1.6377 -0.36914,-2.62354c-0.43213,0.02051 -0.33838,0.07764 -0.73975,0.5127c-1.42383,-1.92187 -1.51904,-3.65039 -0.59033,-5.76709c0.25049,-0.2373 0.7749,-1.2832 1.06934,-1.64209c2.50195,-3.05127 4.60254,-6.36475 6.81592,-9.62256c0.44385,-0.65186 1.02686,-1.46191 1.31689,-2.17236c1.11475,-2.57227 4.54834,-7.00342 6.27393,-9.4834c0.16699,-0.24023 2.45215,-2.42432 2.80664,-2.76562l-0.81006,0.13477c2.81543,-3.31934 11.86084,-8.3833 16.07666,-10.00635c0.28271,-0.17725 2.61621,-1.08105 3.07031,-1.2627c2.69678,-1.10889 5.43311,-2.12256 8.20166,-3.03809c2.25732,-0.75293 4.08398,-1.1543 6.27832,-2.14307c3.08057,-1.0002 6.04395,-2.16299 9.17871,-3.03311c3.69873,-1.20146 7.29492,-2.66338 10.95703,-3.94438c8.95898,-3.13374 17.3335,-7.18403 25.14697,-12.59619c1.70215,-0.97588 3.74707,-2.74849 5.75098,-3.96958c0.1377,-0.02769 0.67969,-0.2625 0.84375,-0.32944z" fill="#2c9fbd"/><path d="M176.29248,189.61963c0.3457,-0.80713 4.58057,-5.84912 5.42871,-6.80127c0.44824,-0.06299 0.63867,-0.18896 1.10742,-0.1875c-0.52295,0.55518 -1.0752,0.86279 -1.55859,1.36523c0.48779,1.50879 1.33887,3.52588 2.12549,4.91455c2.5752,6.22119 5.89014,12.31641 8.53271,18.53613c0.46729,1.09863 2.4375,4.87207 2.67627,5.66895l8.48584,17.66895c1.13086,2.35254 2.86816,5.6748 3.83496,8.01123c0.4292,0.91113 0.52002,1.3374 0.77051,2.31006c-0.23145,0.32666 -0.15381,0.36768 -0.65332,0.39551c-2.31445,0.12598 -6.46289,0.31787 -8.66162,0.05566l-11.56348,0.07324c-3.46436,0.03662 -7.20996,0.2373 -10.65527,-0.24023c-0.81738,-0.11279 -1.13086,-0.29736 -1.66553,-0.91113l-0.08936,-0.35889c0.08936,-0.41309 0.01611,-1.17773 -0.15381,-1.56006c-4.50146,-10.09424 -6.6709,-20.6499 -5.07568,-31.61572c0.06152,-3.29736 2.36133,-9.43359 3.95654,-12.44824c0.78369,-1.48389 2.17383,-3.46436 3.1582,-4.87646z" fill="url(#color-2)"/><path d="M176.29248,189.61963l0.0791,0.25049c-0.98145,1.77979 -2.69678,3.52588 -3.24463,5.38916c-0.14062,0.47607 1.28906,1.25684 1.77246,1.7417c0.97119,-0.55518 1.2583,-4.89551 2.13721,-5.9707c0.10107,0.38818 -0.43799,1.52051 -0.57715,1.99805c-0.35156,1.21436 -0.60791,2.4126 -0.81299,3.66064c-0.5918,3.4541 -0.56689,6.98438 0.07324,10.42969c0.18164,1.02246 1.94824,4.80762 2.05811,5.729l-0.0835,0.04541c-0.22412,-0.55225 -0.57422,-1.19824 -0.68262,-1.76074c-0.24756,-1.28613 -1.04736,-2.4126 -1.45898,-3.646c-0.22852,-0.78516 -0.04541,-1.82666 -0.43066,-2.78467c-0.97705,-0.62695 -0.97559,1.00488 -3.16992,-0.20215c-0.81445,-0.01318 -1.44141,0.646 -2.02441,1.13525c-0.7793,0.65186 -0.63281,1.79297 -0.66064,2.84033c-0.02637,-0.51123 -0.05713,-1.021 -0.08936,-1.53076c0.06152,-3.29736 2.36133,-9.43359 3.95654,-12.44824c0.78369,-1.48389 2.17383,-3.46436 3.1582,-4.87646z" fill="#075a8c"/><path d="M174.49658,240.479c1.27881,-0.07764 2.44629,0.35742 3.72363,0.37354c3.95215,0.04834 7.94092,-0.05127 11.88867,-0.01611c2.02002,0.15381 4.19531,0.08643 6.23438,0.15967c1.70654,0.06006 3.39111,0.18457 5.09473,0.18018l-0.00732,0.15234c-1.01953,0.2124 -2.39355,-0.30615 -3.0498,0.22852l-11.56348,0.07324c-3.46436,0.03662 -7.20996,0.2373 -10.65527,-0.24023c-0.81738,-0.11279 -1.13086,-0.29736 -1.66553,-0.91113z" fill="#10718c"/><path d="M194.60449,213.11572l8.48584,17.66895c1.13086,2.35254 2.86816,5.6748 3.83496,8.01123l-0.2373,0.16113c-0.47314,-1.00781 -1.65381,-3.67236 -2.26465,-4.45166c-0.09668,0.43945 -0.06299,0.54346 -0.05273,0.99316l-0.14355,0.03516c-0.36328,-0.5918 -2.64844,-4.14404 -2.74658,-4.46631c-0.19629,-0.64014 -0.09668,-1.54395 -0.08643,-2.21484c0.03076,-1.91602 -4.87354,-10.81055 -6.09082,-13.05029l0.00293,0.11865c-0.53174,-0.91992 -0.67529,-1.75049 -0.70166,-2.80518z" fill="#2c9fbd"/><path d="M206.92529,238.7959c0.4292,0.91113 0.52002,1.3374 0.77051,2.31006c-0.23145,0.32666 -0.15381,0.36768 -0.65332,0.39551c-2.31445,0.12598 -6.46289,0.31787 -8.66162,0.05566c0.65625,-0.53467 2.03027,-0.01611 3.0498,-0.22852l0.00732,-0.15234c-1.70361,0.00439 -3.38818,-0.12012 -5.09473,-0.18018c-2.03906,-0.07324 -4.21436,-0.00586 -6.23437,-0.15967c2.38477,-0.21973 15.38232,0.32813 16.34473,-0.78223c0.31641,-0.36621 0.28857,-0.65186 0.23438,-1.09717z" fill="#1e90a1"/><path d="M253.12646,123.71016c0.1377,-0.02769 0.67969,-0.2625 0.84375,-0.32944c0.2373,0.51313 0.21533,1.11167 -0.06299,1.62437c-5.41699,9.95449 -13.68604,18.16143 -23.39795,23.95928c-3.48633,2.08154 -7.72559,3.6123 -11.4082,5.35107c-2.05078,0.93311 -4.60254,1.65674 -6.29297,2.45947l-0.20947,-0.06738c1.12646,-0.57568 1.87207,-0.73389 3.03076,-1.16016c1.875,-0.69141 3.73389,-1.51611 5.51221,-2.42432c-1.27148,-1.03418 -1.77539,-0.52734 -1.81201,-2.29248c-0.52588,-0.45117 -0.69141,-0.44238 -0.88916,-0.99756c0.11279,-0.35742 0.29443,-0.76465 0.26514,-1.10596c-0.52002,-0.28125 -0.61816,-0.20801 -0.76318,-0.62256l0.24756,-0.68701c-0.31934,-0.34277 -0.42334,-0.42627 -0.77637,-0.71045c-0.20801,-0.60439 -0.1626,-0.73887 -0.12891,-1.39746l-0.03076,0.05991c0.27686,-1.64663 1.97607,-3.17007 3.36621,-3.99536c-0.87891,-0.3394 -8.31299,3.36431 -9.34863,2.84619c3.69873,-1.20146 7.29492,-2.66338 10.95703,-3.94438c8.95898,-3.13374 17.3335,-7.18403 25.14697,-12.59619c1.70215,-0.97588 3.74707,-2.74849 5.75098,-3.96958z" fill="#64c4dc"/><path d="M168.46582,163.70361c2.81543,-3.31934 11.86084,-8.3833 16.07666,-10.00635c-0.81592,0.96973 -5.02295,2.58252 -6.43213,3.46582c0.40723,0.06885 0.96533,-0.18311 1.28906,-0.41309l0.11719,0.08496c-5.26465,3.50684 -10.18506,6.30615 -13.99072,11.55469c-0.84668,1.16748 -4.62744,6.8042 -5.33057,7.42822c1.11475,-2.57227 4.54834,-7.00342 6.27393,-9.4834c0.16699,-0.24023 2.45215,-2.42432 2.80664,-2.76562z" fill="#0f7eaa"/><path d="M154.4458,202.37402l0.32227,-0.25488c0.43799,0.1377 0.51416,0.22559 0.8877,0.48486l3.36621,7.58643l-0.20508,0.25049l-0.04834,-0.03369c-0.05273,0.36475 0.01318,0.63135 0.06738,0.99463c-1.33008,-2.19873 -3.07617,-6.48633 -4.39014,-9.02783z" fill="#044d6f"/><path d="M165.63574,221.56934c0.72803,1.52637 0.94189,2.80957 1.58203,4.28906c0.00146,1.42236 0.7749,2.19434 0.24023,3.11865c-0.53174,-0.86865 -1.63184,-3.2373 -2.13135,-4.24805c0.59766,-0.77783 0.25488,-1.90576 0.30908,-3.15967z" fill="#044d6f"/><path d="M167.21777,225.8584c0.95068,1.93945 2.69092,5.58105 2.69092,7.76367c-0.86279,-1.52344 -1.68018,-3.07324 -2.45068,-4.64502c0.53467,-0.92432 -0.23877,-1.69629 -0.24023,-3.11865z" fill="#10718c"/><path d="M86.05532,131.67349c0.07456,-0.3936 1.01968,-2.36616 1.22344,-2.84502c1.5835,-3.72202 3.5855,-7.33916 5.29951,-10.95264c3.35845,-7.17993 6.61216,-14.4082 9.76025,-21.68276c0.67617,-1.54629 2.14395,-4.79268 3.82383,-5.45112l0.06328,0.26353c0.91978,0.18794 1.24834,0.00146 2.03862,0.10986c7.91206,0.13345 17.12124,0.32036 25.03901,0.12158c0.72803,-0.23672 2.38901,-0.09038 3.16567,0.173c0.20933,-0.2105 0.36636,-0.28535 0.62329,-0.45249l0.22339,0.24683c2.19243,2.95547 4.64692,8.4019 5.97788,11.91841c0.96006,1.9623 1.94561,3.89941 2.80664,5.90742c0.91304,1.90532 4.01411,8.05693 3.37983,9.90234c-0.48193,1.40449 -4.56138,5.11421 -5.70586,6.46934c-1.3396,1.58628 -2.96396,3.45879 -4.30415,5.08887c-1.17129,1.93228 -2.50166,3.70254 -3.81812,5.54048c-0.70679,0.98687 -1.8249,3.28945 -2.56685,4.03916c-0.49233,0.79966 -1.66772,2.60977 -1.8356,3.42568l-0.2499,0.10093l-0.58872,-0.61816c-0.59063,0.14648 -0.86294,0.09199 -1.09497,0.74517c-0.28447,-0.58184 -0.63735,-1.19766 -0.94937,-1.77129c-0.22207,-0.64731 -0.50288,-1.26167 -0.79629,-1.87925c-1.76514,-3.7144 -3.32563,-7.4937 -4.852,-11.31284c-0.36372,-0.98335 -0.55869,-2.16108 -1.80337,-2.10454c-0.8562,0.49863 -0.96826,1.30752 -1.29009,2.26641c-0.82163,2.26245 -2.09634,4.37461 -2.94346,6.61772c-1.17671,2.91548 -2.73018,5.67188 -3.7894,8.67642c-0.52778,1.49736 -1.40142,3.08086 -1.99277,4.5999c-0.36943,0.25928 -0.375,0.35303 -0.76816,0.39844l-0.23965,-0.39551c-0.86484,1.65234 -1.13599,3.51709 -1.99541,5.3291l0.28564,0.66211c-0.80449,2.09912 -1.83589,4.11182 -2.79741,6.14502c-0.23262,0.49219 -0.78955,1.81641 -1.02187,2.17822c-0.50537,1.19531 -1.12368,2.56494 -1.5498,3.77637c-0.59092,-0.31348 -0.39082,-0.09082 -0.66357,-0.65332c-0.62651,0.84229 -1.80278,4.12061 -1.59961,5.2002c0.04102,0.21094 0.08994,0.41895 0.14678,0.62695c-0.22793,0.50098 -0.59692,1.25098 -0.75762,1.75488c-0.41733,0.30615 -0.30278,0.11133 -0.48369,0.52881l-0.24756,0.02637l0.03267,0.19629l0.05479,0.00879c-0.15308,-0.12744 -0.16567,-0.19336 -0.26133,-0.36182c-0.88945,0.14209 -1.02261,1.01953 -1.72676,1.57617c-0.65537,0.51709 -2.05239,0.87305 -2.59717,1.38281c1.63228,0.22412 3.30908,-2.13135 4.22124,-2.43604l0.20156,0.13623c-0.14854,0.85254 -1.45708,2.33057 -2.38242,2.54443c-1.31382,0.30322 -2.60713,0.7793 -3.97104,0.89648c-1.61938,0.24023 -3.59707,0.00879 -5.03335,0.76904c-0.29927,0.15967 -0.69756,0.19482 -1.04033,0.22559c0.95684,0.03662 1.65483,-0.0498 2.40879,0.52588c-3.43184,0.92725 -6.77974,1.78711 -10.05146,3.20654c-0.60645,0.26367 -1.26387,0.50684 -1.89624,0.69727l-0.98965,-0.78076c-0.5001,0.2417 -1.06772,0.54639 -1.5854,0.71924c-0.80874,0.18311 -0.94512,0.55664 -1.67417,0.94482l0.65874,0.08057l0.04087,0.10547l-0.94116,0.35596c-0.07939,0.30029 -0.08599,0.16113 -0.01567,0.41748c-1.44829,0.88623 -3.15498,1.40332 -4.61016,2.20313c-1.99395,1.0957 -4.02524,2.52686 -5.90654,3.82031c-0.86587,0.59473 -1.95396,1.21436 -2.74731,1.78564c-0.43359,-0.95801 -0.82544,-0.89795 -1.77935,-1.20557c1.05278,-3.4292 4.38164,-9.58887 6.01816,-13.19678c0.698,-1.76074 1.65015,-3.34424 2.39897,-5.0625c3.26836,-7.49854 7.07505,-14.71729 10.43657,-22.17187c2.22539,-4.93506 4.71738,-9.82939 7.06523,-14.70718c0.86514,-1.79751 1.48184,-3.67837 2.52012,-5.39619z" fill="#075a8c"/><path d="M86.05532,131.67349c0.07456,-0.3936 1.01968,-2.36616 1.22344,-2.84502c1.5835,-3.72202 3.5855,-7.33916 5.29951,-10.95264c3.35845,-7.17993 6.61216,-14.4082 9.76025,-21.68276c0.67617,-1.54629 2.14395,-4.79268 3.82383,-5.45112l0.06328,0.26353c0.91978,0.18794 1.24834,0.00146 2.03862,0.10986c7.91206,0.13345 17.12124,0.32036 25.03901,0.12158l0.01216,0.29048c-0.14766,0.14897 -3.71089,1.92686 -4.41753,2.34565c-13.35161,7.91206 -18.89209,23.03818 -25.23325,36.57773c-0.80698,1.76104 -1.62334,3.51782 -2.44937,5.27007c-0.5499,1.1499 -1.38706,2.63599 -1.75034,3.81021l-0.1377,0.05874c-0.03062,-0.85342 1.34063,-2.38418 1.38838,-3.73433l-0.16318,-0.13403c-0.28491,0.23716 -0.34995,0.51504 -0.49043,0.86499l-0.19893,0.05435c-0.16157,-0.9019 0.11426,-1.23779 -0.24316,-1.88086c-1.51816,-0.74692 -2.83682,1.47686 -3.51123,-1.08457c-0.13125,-0.49805 -0.34805,-1.13057 -0.67456,-1.53442c-0.37178,-0.09536 -0.62256,-0.14941 -1.00093,-0.21372c-0.2146,-0.40327 -0.22295,-0.52061 -0.33428,-0.95801c-4.36289,-4.26519 -3.03779,-3.88389 -0.7979,-9.02871c-0.10781,0.24756 0.63838,-4.00063 0.66299,-4.23662l-0.75073,1.0522c-0.40166,0.5332 -1.11255,2.13691 -1.46235,2.85176c-1.28086,2.67129 -2.51763,5.36382 -3.70942,8.07612c-0.52222,1.18037 -1.27104,3.08394 -1.85522,4.13438c-0.03677,-0.06519 -0.00117,-0.01919 -0.17461,-0.15176c-0.84595,1.57603 -3.29517,7.40083 -4.20601,7.79385c-0.12861,-0.60747 4.40684,-8.53301 4.24966,-9.78691z" fill="#0f7eaa"/><path d="M86.05532,131.67349c0.07456,-0.3936 1.01968,-2.36616 1.22344,-2.84502c1.5835,-3.72202 3.5855,-7.33916 5.29951,-10.95264c3.35845,-7.17993 6.61216,-14.4082 9.76025,-21.68276c0.67617,-1.54629 2.14395,-4.79268 3.82383,-5.45112l0.06328,0.26353c0.91978,0.18794 1.24834,0.00146 2.03862,0.10986c-1.48301,0.2209 -1.8668,0.12334 -2.7542,1.41064c-1.04429,1.51523 -1.64136,2.92397 -2.78716,4.39175l-0.17959,0.23262c-0.03691,0.0457 -0.07383,0.09155 -0.11074,0.13726c0.0854,1.27031 -2.44731,5.43428 -3.05171,6.94937c-0.38188,0.95757 -0.82778,3.1459 -1.24321,3.85767c-2.03965,3.49482 -3.37017,6.95552 -4.92437,10.66143c-0.40166,0.5332 -1.11255,2.13691 -1.46235,2.85176c-1.28086,2.67129 -2.51763,5.36382 -3.70942,8.07612c-0.52222,1.18037 -1.27104,3.08394 -1.85522,4.13438c-0.03677,-0.06519 -0.00117,-0.01919 -0.17461,-0.15176c-0.84595,1.57603 -3.29517,7.40083 -4.20601,7.79385c-0.12861,-0.60747 4.40684,-8.53301 4.24966,-9.78691z" fill="#085e82"/><path d="M137.09224,90.95742l0.22339,0.24683c2.19243,2.95547 4.64692,8.4019 5.97788,11.91841c0.96006,1.9623 1.94561,3.89941 2.80664,5.90742c0.91304,1.90532 4.01411,8.05693 3.37983,9.90234c-0.48193,1.40449 -4.56138,5.11421 -5.70586,6.46934c-1.3396,1.58628 -2.96396,3.45879 -4.30415,5.08887c-1.60811,-0.76025 -3.74487,-6.2666 -4.56504,-8.03394l-6.19775,-13.37168c0.727,-1.71577 1.45386,-3.33984 2.08843,-5.09766c1.12075,-3.10488 2.59819,-5.9644 3.75483,-9.0731c0.41909,-1.39585 1.11211,-2.30552 1.91851,-3.50435c0.20933,-0.2105 0.36636,-0.28535 0.62329,-0.45249z" fill="#2c9fbd"/><path d="M137.09224,90.95742l0.22339,0.24683c2.19243,2.95547 4.64692,8.4019 5.97788,11.91841l-0.93691,0.23232c-1.09424,-0.99595 -0.40898,-2.77573 -0.57817,-3.12744c-0.57466,-1.19443 -1.43569,-3.09126 -2.06338,-4.28379c-0.4897,-0.2291 -0.66123,-0.31714 -1.11519,-0.60483c-0.80918,-1.33315 0.56294,-2.08784 -1.59155,-3.82632c-0.71514,0.30161 -1.76235,2.57754 -2.45786,3.40166c0.41909,-1.39585 1.11211,-2.30552 1.91851,-3.50435c0.20933,-0.2105 0.36636,-0.28535 0.62329,-0.45249z" fill="#0f7eaa"/><path d="M143.29351,103.12266c0.96006,1.9623 1.94561,3.89941 2.80664,5.90742c-0.95376,-0.67412 -0.00879,-0.44868 -0.90176,-0.94292c-0.02944,0.21489 0.17695,0.58228 0.2792,0.82764l0.00425,-0.00791l-0.07734,0.29224c-0.80786,-1.17261 -2.21191,-3.63223 -2.62734,-4.99028c-0.13696,-0.44751 -0.04687,-0.47798 -0.42056,-0.85386z" fill="#1e90a1"/><path d="M63.63442,179.01123c0.698,-1.76074 1.65015,-3.34424 2.39897,-5.0625c3.26836,-7.49854 7.07505,-14.71729 10.43657,-22.17187c2.22539,-4.93506 4.71738,-9.82939 7.06523,-14.70718c0.86514,-1.79751 1.48184,-3.67837 2.52012,-5.39619c0.15718,1.25391 -4.37827,9.17944 -4.24966,9.78691c0.91084,-0.39302 3.36006,-6.21782 4.20601,-7.79385c0.17344,0.13257 0.13784,0.08657 0.17461,0.15176c-1.72661,3.07852 -2.77324,6.36826 -4.89141,9.29897c-0.496,0.68628 -0.8647,3.22632 -1.30151,3.97939c-0.75732,1.30664 -2.03789,4.69629 -3.21577,5.39502c-0.19146,0.66504 0.0186,1.47949 -0.1623,1.97314c-0.52837,1.44287 -1.4877,2.87549 -2.07642,4.27441c-1.05308,2.55615 -2.10249,4.96875 -3.51299,7.35791c-0.56118,0.95068 -0.86367,2.52246 -1.37637,3.42041c-1.72603,3.02637 -3.2064,7.27734 -5.13662,10.04883c-0.37485,0.01758 -0.62856,-0.26221 -0.87847,-0.55518z" fill="#044d6f"/><path d="M122.71816,128.7605l0.28169,0.00278l0.68643,1.56475c0.06108,-1.00474 -0.45337,-0.83306 -0.38437,-1.64868c0.99932,0.58623 2.92031,5.66997 3.27949,6.94937c0.27539,0.98071 3.59385,7.52183 4.44111,7.36641c0.73608,-1.05762 1.07563,-2.65078 2.0625,-2.92485c-0.49233,0.79966 -1.66772,2.60977 -1.8356,3.42568l-0.2499,0.10093l-0.58872,-0.61816c-0.59063,0.14648 -0.86294,0.09199 -1.09497,0.74517c-0.28447,-0.58184 -0.63735,-1.19766 -0.94937,-1.77129c-0.22207,-0.64731 -0.50288,-1.26167 -0.79629,-1.87925c-1.76514,-3.7144 -3.32563,-7.4937 -4.852,-11.31284z" fill="#085e82"/><path d="M128.36646,141.95259l0.3353,-0.47227c0.77769,0.029 1.24937,0.90176 1.70903,1.49839c-0.59063,0.14648 -0.86294,0.09199 -1.09497,0.74517c-0.28447,-0.58184 -0.63735,-1.19766 -0.94937,-1.77129z" fill="#013760"/><path d="M115.85977,134.89526l0.6085,0.11426l0.21299,0.53057c-1.17671,2.91548 -2.73018,5.67188 -3.7894,8.67642c-0.52778,1.49736 -1.40142,3.08086 -1.99277,4.5999c-0.36943,0.25928 -0.375,0.35303 -0.76816,0.39844l-0.23965,-0.39551c1.89697,-4.75796 4.14521,-9.32812 5.96851,-13.92407z" fill="#00010a"/><path d="M86.70498,179.33203c0.95684,0.03662 1.65483,-0.0498 2.40879,0.52588c-3.43184,0.92725 -6.77974,1.78711 -10.05146,3.20654c-0.60645,0.26367 -1.26387,0.50684 -1.89624,0.69727l-0.98965,-0.78076c2.40894,-1.02246 6.24287,-2.32617 8.79771,-2.32764c0.73037,-0.4248 1.11812,-0.73828 1.73086,-1.32129z" fill="#001739"/><path d="M107.89585,154.14844l0.28564,0.66211c-0.80449,2.09912 -1.83589,4.11182 -2.79741,6.14502c-0.23262,0.49219 -0.78955,1.81641 -1.02187,2.17822c-0.45996,0.43799 -0.22236,0.35742 -0.72378,0.47607c-0.18413,-0.44824 -0.09316,-0.47168 -0.03018,-1.02832c0.51768,-1.34033 3.43594,-7.604 4.2876,-8.43311z" fill="#00051d"/><path d="M115.85977,134.89526c0.93999,-1.7855 1.65513,-3.78853 2.70132,-5.48423c0.30454,-0.49351 0.55283,-0.42261 1.06362,-0.48867c-0.82163,2.26245 -2.09634,4.37461 -2.94346,6.61772l-0.21299,-0.53057z" fill="#001739"/><path d="M103.60825,162.58154c-0.06299,0.55664 -0.15396,0.58008 0.03018,1.02832c0.50142,-0.11865 0.26382,-0.03809 0.72378,-0.47607c-0.50537,1.19531 -1.12368,2.56494 -1.5498,3.77637c-0.59092,-0.31348 -0.39082,-0.09082 -0.66357,-0.65332c0.51943,-1.26562 0.8124,-2.46533 1.45942,-3.67529z" fill="#001739"/><path d="M106.16235,90.74194c0.8625,-0.26279 1.73086,-0.43887 2.63394,-0.47651c7.58188,-0.31641 15.19819,-0.12905 22.78696,-0.13989c1.17744,-0.00176 4.80527,-0.08877 5.50898,0.83188c-0.25693,0.16714 -0.41396,0.24199 -0.62329,0.45249c-0.77666,-0.26338 -2.43765,-0.40972 -3.16567,-0.173c-7.91777,0.19878 -17.12695,0.01187 -25.03901,-0.12158c-0.79028,-0.1084 -1.11885,0.07808 -2.03862,-0.10986z" fill-opacity="0.98824" fill="#044d6f"/><path d="M132.81753,193.51025c0.78779,-0.16113 1.0333,-0.33398 1.63755,0.25488c-7.21523,5.84326 -11.37832,8.39209 -20.16694,11.68799c-0.39185,-0.47607 -0.41162,-0.08936 -0.60996,-0.74268c7.92554,-2.84033 12.74399,-5.99854 19.13936,-11.2002z" fill="url(#color-3)"/><path d="M168.46582,163.70361l0.81006,-0.13477c-0.35449,0.34131 -2.63965,2.52539 -2.80664,2.76563c-1.72559,2.47998 -5.15918,6.91113 -6.27393,9.4834c-0.29004,0.71045 -0.87305,1.52051 -1.31689,2.17236c-2.21338,3.25781 -4.31396,6.57129 -6.81592,9.62256c-0.29443,0.35889 -0.81885,1.40479 -1.06934,1.64209c-0.16846,-1.3916 5.40088,-7.11328 5.83154,-8.99854l-0.94922,1.00635c0.23584,-0.99023 0.72217,-1.03271 0.80566,-2.08447c0.1377,-0.31934 1.53516,-2.40674 1.80469,-2.8125c2.18115,-3.29004 6.92578,-10.52051 9.97998,-12.66211z" fill-opacity="0.98824" fill="#10718c"/><path d="M156.68115,179.17822c-0.0835,1.05176 -0.56982,1.09424 -0.80566,2.08447l0.94922,-1.00635c-0.43066,1.88525 -6,7.60693 -5.83154,8.99854c-0.92871,2.1167 -0.8335,3.84521 0.59033,5.76709c0.40137,-0.43506 0.30762,-0.49219 0.73975,-0.5127c0.7749,0.98584 -0.08203,1.61865 0.36914,2.62354c0.15381,0.33984 1.06934,0.87451 1.21729,1.45166l-0.09668,0.14063c-0.31494,-0.28125 -0.59473,-0.52881 -0.92432,-0.79541c-0.02637,0.6958 0.53027,1.54834 1.12207,1.89697c1.05176,0.62109 0.74268,1.72998 1.63037,2.43311l0.01465,0.34424c-0.37354,-0.25928 -0.44971,-0.34717 -0.8877,-0.48486l-0.32227,0.25488c-1.14551,-3.26367 -4.15723,-7.89844 -4.75781,-11.53711c-0.38818,-2.35254 3.14648,-5.89014 4.39746,-7.81055c0.68408,-1.04883 1.83252,-2.84912 2.5957,-3.84814z" fill-opacity="0.98824" fill="#085e82"/><path d="M160.57178,212.85498c1.44287,1.72119 1.16162,3.73535 2.49316,5.3042c0.19922,0.23584 0.37646,0.46289 0.58301,0.69873l0.12891,-0.02197l0.05273,-0.23291l0.58154,-0.19775c0.36035,0.5083 1.11768,2.56934 1.22461,3.16406c-0.0542,1.25391 0.28857,2.38184 -0.30908,3.15967c-1.15869,-2.45361 -2.90771,-5.59277 -3.88477,-7.90576c0.57275,-1.24219 -0.74121,-2.64258 -0.87012,-3.96826z" fill-opacity="0.98824" fill="#085e82"/><path d="M276.61523,54.48706c0.11719,-0.39624 0.14355,-0.67969 0.46289,-0.92461c1.21289,0.74121 0.6123,9.51182 0.22852,11.24385l-0.07471,-1.43555c-1.64941,-1.83501 -0.49805,-6.66313 -0.60791,-8.73311z" fill-opacity="0.98824" fill="#044d6f"/><path d="M189.35889,178.88379c0.30469,-0.49219 2.52539,-1.41943 3.31787,-1.85156l-0.82031,0.271c1.10889,-0.90967 5.09326,-2.0918 6.57715,-2.50049c1.94824,-0.5376 5.14453,-2.0625 7.04004,-1.46631c-3.77637,1.37695 -7.68896,2.28369 -11.4375,3.71484c-1.56445,0.59766 -3.11133,1.23779 -4.67725,1.83252z" fill-opacity="0.98824" fill="#10718c"/><path d="M83.8103,215.73926c-0.2105,-0.43359 -0.30586,-0.50391 -0.21709,-0.96826c1.42324,-2.36426 5.40571,-3.06885 7.50029,-3.82471c0.49014,0.34131 0.32124,0.1084 0.44399,0.7749c-3.30894,1.25684 -4.98442,1.73877 -7.7272,4.01807z" fill="url(#color-4)"/><path d="M86.70498,179.33203c0.34277,-0.03076 0.74106,-0.06592 1.04033,-0.22559c1.43628,-0.76025 3.41396,-0.52881 5.03335,-0.76904c1.36392,-0.11719 2.65723,-0.59326 3.97104,-0.89648c0.92534,-0.21387 2.23389,-1.69189 2.38242,-2.54443l-0.20156,-0.13623c-0.91216,0.30469 -2.58896,2.66016 -4.22124,2.43604c0.54478,-0.50977 1.9418,-0.86572 2.59717,-1.38281c0.70415,-0.55664 0.8373,-1.43408 1.72676,-1.57617c0.09565,0.16846 0.10825,0.23438 0.26133,0.36182l-0.05479,-0.00879l-0.03267,-0.19629l0.24756,-0.02637c0.18091,-0.41748 0.06636,-0.22266 0.48369,-0.52881c-0.40957,1.29053 -1.22578,2.37451 -1.86372,3.56396c-3.29736,0.75879 -5.81016,1.56738 -8.96089,2.45508c-0.75396,-0.57568 -1.45195,-0.48926 -2.40879,-0.52588z" fill-opacity="0.98431" fill="#013760"/><path d="M135.12788,191.80078c0.32915,-0.40283 4.71313,-5.23096 4.87808,-5.32471l-0.24126,0.39697c0.69023,0.07764 0.86133,0.01758 1.50513,-0.2417c-1.90195,2.33936 -3.56689,4.16162 -5.8604,6.16113c-0.21152,-0.31494 -0.22017,-0.61377 -0.28154,-0.9917z" fill-opacity="0.98824" fill="#001739"/><path d="M69.31113,240.44092c0.06812,-0.99316 0.15688,-2.00244 0.4541,-2.95898c0.50464,-1.62451 1.82432,-2.73047 2.10908,-4.3667c-0.03545,0.62109 -0.1481,0.78076 0.08423,1.2583l0.30908,0.18018c-0.3627,1.29932 -1.58584,4.29199 -2.10088,5.70264c-0.15469,-0.11572 -0.23496,-0.14502 -0.40752,-0.23291z" fill-opacity="0.98824" fill="#02325c"/><path d="M266.5415,95.36719c-0.14795,-1.83472 3.01025,-6.53555 4.06494,-8.21133c0.2666,-0.42334 0.49365,-0.38936 0.87744,-0.42349c-0.94336,2.08154 -3.53174,6.91055 -4.94238,8.63481z" fill-opacity="0.98039" fill="#044d6f"/><path d="M75.96562,226.33447c-0.74209,1.57178 -1.56621,3.08643 -2.29087,4.66846c-0.53584,1.17041 -0.91538,2.39209 -1.40713,3.55078l-0.30908,-0.18018c-0.23232,-0.47754 -0.11968,-0.63721 -0.08423,-1.2583c0.28286,-1.29492 1.53662,-3.99023 2.17515,-5.2002l0.05977,0.17725c-0.51401,0.78955 -0.41206,0.70752 -0.28462,1.50879c-0.3835,0.08057 -0.37778,0.07324 -0.72202,0.25635l0.02227,0.17285c0.15762,0.00879 0.31523,0.01904 0.473,0.02783c0.98481,-0.79248 1.18022,-2.93994 2.36777,-3.72363z" fill-opacity="0.98824" fill="#001739"/><path d="M159.02197,210.19043c0.66797,0.74707 1.12793,1.76074 1.5498,2.66455c0.12891,1.32568 1.44287,2.72607 0.87012,3.96826c-0.67529,-1.1748 -2.06543,-4.125 -2.60596,-5.42139c-0.0542,-0.36328 -0.12012,-0.62988 -0.06738,-0.99463l0.04834,0.03369z" fill="#075a8c"/><path d="M91.09351,210.94629c1.93154,-1.01074 2.27739,-0.85107 4.40361,-0.75293c0.404,0.01904 0.81006,0.04688 1.09819,-0.21826c-0.13213,-0.42187 -0.16538,-0.48193 -0.05947,-0.91113c0.63794,0.93018 0.73315,0.82178 1.86445,0.89355c-2.29175,0.43799 -4.61631,1.12207 -6.86279,1.76367c-0.12275,-0.6665 0.04614,-0.43359 -0.44399,-0.7749z" fill-opacity="0.98824" fill="#001739"/><path d="M57.61626,192.20801c0.95391,0.30762 1.34575,0.24756 1.77935,1.20557c-0.70781,0.60059 -2.0373,1.83545 -2.87285,2.1123l-0.15044,-0.16406c0.08145,-0.52734 0.97793,-2.53711 1.24395,-3.15381z" fill="#00010a"/><path d="M102.78369,207.96826l0.9293,-0.11719c1.90737,-0.23291 4.10215,-1.11182 5.82422,-1.95996c0.27832,0.35596 0.46685,0.65771 0.8458,0.90234c-1.24087,0.34863 -4.16235,1.35938 -5.19199,1.4707c-0.49937,-0.34863 -1.72632,-0.27686 -2.40732,-0.2959z" fill-opacity="0.98824" fill="#013760"/><path d="M100.696,172.08398c-0.05684,-0.20801 -0.10576,-0.41602 -0.14678,-0.62695c-0.20317,-1.07959 0.9731,-4.35791 1.59961,-5.2002c0.27275,0.5625 0.07266,0.33984 0.66357,0.65332c-0.71279,1.9043 -1.29756,3.31787 -2.11641,5.17383z" fill-opacity="0.98824" fill="#02325c"/><path d="M107.89585,154.14844c0.85942,-1.81201 1.13057,-3.67676 1.99541,-5.3291l0.23965,0.39551c0.39316,-0.04541 0.39873,-0.13916 0.76816,-0.39844c-0.71675,2.10205 -1.91646,3.95361 -2.71758,5.99414z" fill-opacity="0.98431" fill="#001739"/><path d="M72.65962,185.60449c-0.07031,-0.25635 -0.06372,-0.11719 0.01567,-0.41748l0.94116,-0.35596l-0.04087,-0.10547l-0.65874,-0.08057c0.72905,-0.38818 0.86543,-0.76172 1.67417,-0.94482c0.2395,0.2124 0.56646,0.52881 0.8228,0.69873c-1.01396,0.38965 -1.77231,0.73389 -2.7542,1.20557z" fill-opacity="0.98431" fill="#02325c"/><path d="M130.41079,142.97871l0.58872,0.61816l-0.6208,1.51978c-0.42085,-0.48779 -0.74341,-0.82222 -1.06289,-1.39277c0.23203,-0.65317 0.50435,-0.59868 1.09497,-0.74517z" fill-opacity="0.97647" fill="#02325c"/><path d="M74.59102,183.7002c0.51768,-0.17285 1.0853,-0.47754 1.5854,-0.71924l0.98965,0.78076l-1.75225,0.63721c-0.25635,-0.16992 -0.5833,-0.48633 -0.8228,-0.69873z" fill-opacity="0.97647" fill="#013760"/><path d="M43.39395,222.45703c0.06226,-0.23584 0.31772,-0.69873 0.43799,-0.93896c0.34146,0.2373 0.55415,0.39697 0.92197,0.59912c-0.65186,0.96533 -0.58945,1.5835 -0.97383,2.63379c0.04819,-1.06787 0.16216,-1.41797 -0.38613,-2.29395z" fill-opacity="0.98824" fill="#02325c"/></g></svg></svg>